<svg xmlns="http://www.w3.org/2000/svg" width="24" height="24" fill="none" id="youtube-music">
    <path fill="#000" fill-rule="evenodd" d="M9.77 8.057a.5.5 0 0 1 .517.033l5 3.5a.5.5 0 0 1 0 .82l-5 3.5a.5.5 0 0 1-.787-.41v-7a.5.5 0 0 1 .27-.443Zm.73 1.403v5.08L14.128 12 10.5 9.46Z" clip-rule="evenodd"></path>
    <path fill="#000" fill-rule="evenodd" d="M12 2.5a9.5 9.5 0 1 0 0 19 9.5 9.5 0 0 0 0-19ZM1.5 12C1.5 6.201 6.201 1.5 12 1.5S22.5 6.201 22.5 12 17.799 22.5 12 22.5 1.5 17.799 1.5 12Z" clip-rule="evenodd"></path>
    <path fill="#000" fill-rule="evenodd" d="M12 6a6 6 0 1 0 0 12 6 6 0 0 0 0-12Zm-7 6a7 7 0 1 1 14 0 7 7 0 0 1-14 0Z" clip-rule="evenodd"></path>
</svg>