<svg xmlns="http://www.w3.org/2000/svg" width="24" height="24" fill="none" viewBox="0 0 24 24" id="add-video">
    <path fill="#727982" d="M5 5.25C3.48122 5.25 2.25 6.48122 2.25 8V16C2.25 17.5188 3.48122 18.75 5 18.75H14.5C16.0188 18.75 17.25 17.5188 17.25 16V15.1541L20.6954 16.6854C20.9274 16.7885 21.1958 16.7672 21.4087 16.6289C21.6216 16.4905 21.75 16.2539 21.75 16V8C21.75 7.74612 21.6216 7.50947 21.4087 7.37113C21.1958 7.23279 20.9274 7.21153 20.6954 7.31464L17.25 8.84593V8C17.25 6.48122 16.0188 5.25 14.5 5.25H5Z"></path>
    <path fill="#ECEFF1" fill-rule="evenodd" d="M10 8.25C10.4142 8.25 10.75 8.58579 10.75 9V15C10.75 15.4142 10.4142 15.75 10 15.75C9.58579 15.75 9.25 15.4142 9.25 15V9C9.25 8.58579 9.58579 8.25 10 8.25Z" clip-rule="evenodd"></path>
    <path fill="#ECEFF1" fill-rule="evenodd" d="M6.25 12C6.25 11.5858 6.58579 11.25 7 11.25H13C13.4142 11.25 13.75 11.5858 13.75 12C13.75 12.4142 13.4142 12.75 13 12.75H7C6.58579 12.75 6.25 12.4142 6.25 12Z" clip-rule="evenodd"></path>
</svg>