<svg xmlns="http://www.w3.org/2000/svg" width="200" height="200" class="icon" viewBox="0 0 1024 1024" id="notification">
  <path fill="#593A25" d="M821.3 810H202.7c-23.5 0-45.7-11.1-60.9-30.4-15-18.9-21-43.4-16.6-67.2.5-2.6 1.4-5.2 2.6-7.6l143.1-281.3c0-.1.1-.1.1-.2 10.2-19.8 15.7-42.1 15.7-64.3v-53.2c-.2-17 2.6-33.7 8.2-49.7 0-.1 0-.1.1-.1 7.1-19.9 24-58.6 57.1-93.1 19.1-20 41.1-35.7 65.2-46.9 28.7-13.3 60.7-20 94.9-20s66.2 6.7 94.9 20c24.1 11.1 46 26.9 65.2 46.9 33.2 34.6 50 73.2 57.1 93.1 0 .1.1.1.1.2 5.5 16 8.3 32.6 8.1 49.6V359c0 22.9 5.4 45.8 15.7 66.3l143 279.5c1.2 2.4 2.1 5 2.6 7.6 4.4 23.7-1.6 48.1-16.5 67-14.5 19.1-36.6 30.3-60.6 30.6h-.5zm-641.5-84.1c-.4 6.8 1.7 13.6 5.9 19l.1.1c4.5 5.7 10.6 9 16.9 9H821c6.6-.1 12.8-3.4 16.8-8.6.1-.2.3-.4.4-.6 4.3-5.4 6.4-12.1 5.9-18.9L703.3 450.7c0-.1-.1-.1-.1-.2-14.2-28.3-21.7-59.9-21.7-91.6V305.3c.1-10.5-1.6-20.8-5-30.7C666.2 245.7 624 152 512 152c-111.8 0-154.1 93.8-164.4 122.7-3.5 9.9-5.1 20.2-5 30.7V359c0 31.2-7.6 62.3-21.9 90L179.8 725.9z"></path>
  <path fill="#FFB612" d="M614.5 928h-205c-15.5 0-28-12.5-28-28s12.5-28 28-28h204.9c15.5 0 28 12.5 28 28s-12.5 28-27.9 28z"></path>
</svg>
