<svg xmlns="http://www.w3.org/2000/svg" x="0px" y="0px" width="100" height="100" viewBox="0,0,300,150">
    <g fill="#ffffff" fill-rule="nonzero" stroke="none" stroke-width="1" stroke-linecap="butt" stroke-linejoin="miter" stroke-miterlimit="10" stroke-dasharray="" stroke-dashoffset="0" font-family="none" font-weight="none" font-size="none" text-anchor="none" style="mix-blend-mode: normal"><g transform="scale(5.12,5.12)"><path d="M18,3c-1.64497,0 -3,1.35503 -3,3v27c0,1.64497 1.35503,3 3,3h14c1.64497,0 3,-1.35503 3,-3v-27c0,-1.64497 -1.35503,-3 -3,-3zM18,5h14c0.56503,0 1,0.43497 1,1v18h-16v-18c0,-0.56503 0.43497,-1 1,-1zM11.98438,17.98633c-0.55152,0.00862 -0.99193,0.46214 -0.98437,1.01367v15c0,3.30163 2.69838,6 6,6h5v6h-5c-0.36064,-0.0051 -0.69608,0.18438 -0.87789,0.49587c-0.18181,0.3115 -0.18181,0.69676 0,1.00825c0.18181,0.3115 0.51725,0.50097 0.87789,0.49587h5.83203c0.10799,0.01785 0.21818,0.01785 0.32617,0h3.67383c0.10799,0.01785 0.21818,0.01785 0.32617,0h5.8418c0.36064,0.0051 0.69608,-0.18438 0.87789,-0.49587c0.18181,-0.3115 0.18181,-0.69676 0,-1.00825c-0.18181,-0.3115 -0.51725,-0.50097 -0.87789,-0.49587h-5v-6h5c3.30163,0 6,-2.69837 6,-6v-15c0.0051,-0.36064 -0.18438,-0.69608 -0.49587,-0.87789c-0.3115,-0.18181 -0.69676,-0.18181 -1.00825,0c-0.3115,0.18181 -0.50097,0.51725 -0.49587,0.87789v15c0,2.22037 -1.77963,4 -4,4h-5.83203c-0.10799,-0.01785 -0.21818,-0.01785 -0.32617,0h-3.6875c-0.05615,-0.00939 -0.113,-0.01396 -0.16992,-0.01367c-0.04844,0.00105 -0.09675,0.00562 -0.14453,0.01367h-5.83984c-2.22038,0 -4,-1.77963 -4,-4v-15c0.0037,-0.2703 -0.10218,-0.53059 -0.29351,-0.72155c-0.19133,-0.19097 -0.45182,-0.29634 -0.72212,-0.29212zM17,26h16v7c0,0.56503 -0.43497,1 -1,1h-14c-0.56503,0 -1,-0.43497 -1,-1zM25,28c-1.10457,0 -2,0.89543 -2,2c0,1.10457 0.89543,2 2,2c1.10457,0 2,-0.89543 2,-2c0,-1.10457 -0.89543,-2 -2,-2zM24,40h2v6h-2z"></path></g></g>
</svg>